 <svg width="441" height="405" viewBox="0 0 441 405" fill="none" xmlns="http://www.w3.org/2000/svg">
<path d="M59.9753 273.408C85.54 273.408 106.264 228.048 106.264 172.094C106.264 116.14 85.54 70.7799 59.9753 70.7799C34.4106 70.7799 13.6863 116.14 13.6863 172.094C13.6863 228.048 34.4106 273.408 59.9753 273.408Z" fill="#6C63FF"/>
<path d="M59.5503 173.145C61.8593 129.044 66.5116 99.2546 66.5583 98.9588L65.5489 98.7754C65.5022 99.0714 60.8417 128.908 58.5289 173.067C56.3947 213.822 55.8797 275.467 65.5487 337.698L66.5586 337.518C56.9061 275.393 57.4198 213.841 59.5503 173.145Z" fill="#3F3D56"/>
<path d="M101.347 151.548L59.4944 175.577L59.9776 176.545L101.83 152.516L101.347 151.548Z" fill="#3F3D56"/>
<path d="M15.795 163.591L15.312 164.56L57.1706 188.577L57.6535 187.608L15.795 163.591Z" fill="#3F3D56"/>
<path d="M380.948 262.876C414.114 262.876 441 204.029 441 131.438C441 58.8468 414.114 0 380.948 0C347.782 0 320.896 58.8468 320.896 131.438C320.896 204.029 347.782 262.876 380.948 262.876Z" fill="#6C63FF"/>
<path d="M380.218 132.785C383.214 75.5612 389.251 36.9091 389.312 36.5252L388.355 36.3513C388.294 36.7354 382.25 75.4328 379.25 132.71C376.481 185.574 375.814 265.533 388.355 346.249L389.312 346.078C376.787 265.462 377.454 185.592 380.218 132.785Z" fill="#3F3D56"/>
<path d="M434.705 104.952L380.408 136.125L380.867 137.044L435.163 105.87L434.705 104.952Z" fill="#3F3D56"/>
<path d="M323.547 120.576L323.089 121.494L377.394 152.652L377.852 151.734L323.547 120.576Z" fill="#3F3D56"/>
<path d="M308.595 298.475C320.987 298.475 331.032 276.489 331.032 249.367C331.032 222.245 320.987 200.258 308.595 200.258C296.203 200.258 286.158 222.245 286.158 249.367C286.158 276.489 296.203 298.475 308.595 298.475Z" fill="#E6E6E6"/>
<path d="M308.575 251.482L308.708 251.749L328.995 240.101L328.537 239.183L308.618 250.62C309.72 228.856 311.974 214.247 312.02 213.959L311.063 213.785C311.013 214.099 308.335 231.448 307.384 256.552L287.293 245.017L286.836 245.936L307.122 257.583L307.364 257.098C306.604 277.818 307.03 303.725 311.063 329.679L312.02 329.508C307.623 301.211 307.527 272.966 308.575 251.482Z" fill="#3F3D56"/>
<path d="M422.282 357.032C302.773 316.45 194.406 318.612 124.542 327.572C48.853 337.279 0.82448 356.826 0.348371 357.022L0 356.05C0.477531 355.853 48.6191 336.26 124.427 326.538C169.018 320.826 214.01 319.592 258.815 322.85C314.438 326.889 369.413 338.031 422.575 356.04L422.282 357.032Z" fill="#3F3D56"/>
<path d="M153.619 345.563C153.619 345.563 153.954 338.03 160.825 338.905L153.619 345.563Z" fill="#3F3D56"/>
<path d="M151.677 338.394C153.577 338.394 155.116 336.742 155.116 334.705C155.116 332.668 153.577 331.016 151.677 331.016C149.778 331.016 148.239 332.668 148.239 334.705C148.239 336.742 149.778 338.394 151.677 338.394Z" fill="#6C63FF"/>
<path d="M152.089 340.917H151.118V348.206H152.089V340.917Z" fill="#3F3D56"/>
<path d="M278.839 347.125C278.839 347.125 279.174 339.591 286.045 340.467L278.839 347.125Z" fill="#3F3D56"/>
<path d="M276.898 339.956C278.797 339.956 280.337 338.304 280.337 336.267C280.337 334.23 278.797 332.578 276.898 332.578C274.999 332.578 273.459 334.23 273.459 336.267C273.459 338.304 274.999 339.956 276.898 339.956Z" fill="#6C63FF"/>
<path d="M277.309 342.479H276.338V349.768H277.309V342.479Z" fill="#3F3D56"/>
<path d="M72.5654 334.109C72.5654 334.109 72.9006 326.576 79.7715 327.451L72.5654 334.109Z" fill="#3F3D56"/>
<path d="M70.6241 326.94C72.5234 326.94 74.063 325.289 74.063 323.251C74.063 321.214 72.5234 319.562 70.6241 319.562C68.7249 319.562 67.1853 321.214 67.1853 323.251C67.1853 325.289 68.7249 326.94 70.6241 326.94Z" fill="#6C63FF"/>
<path d="M71.0353 329.463H70.0646V336.752H71.0353V329.463Z" fill="#3F3D56"/>
<path d="M125.469 324.217C125.469 324.217 125.804 316.684 132.675 317.559L125.469 324.217Z" fill="#3F3D56"/>
<path d="M123.527 317.048C125.426 317.048 126.966 315.397 126.966 313.359C126.966 311.322 125.426 309.67 123.527 309.67C121.628 309.67 120.088 311.322 120.088 313.359C120.088 315.397 121.628 317.048 123.527 317.048Z" fill="#6C63FF"/>
<path d="M123.938 319.571H122.968V326.86H123.938V319.571Z" fill="#3F3D56"/>
<path d="M257.969 338.274C257.969 338.274 258.304 330.741 265.175 331.616L257.969 338.274Z" fill="#3F3D56"/>
<path d="M256.028 331.105C257.927 331.105 259.467 329.454 259.467 327.416C259.467 325.379 257.927 323.727 256.028 323.727C254.128 323.727 252.589 325.379 252.589 327.416C252.589 329.454 254.128 331.105 256.028 331.105Z" fill="#6C63FF"/>
<path d="M256.439 333.628H255.468V340.917H256.439V333.628Z" fill="#3F3D56"/>
<path d="M407.215 323.172L427.191 354.945L408.593 374.896L406.182 369.723L410.315 359.379C410.315 359.379 409.626 349.773 407.215 347.187C404.804 344.601 394.127 329.083 394.127 329.083L407.215 323.172Z" fill="#FFB8B8"/>
<path d="M381.728 220.464C381.728 220.464 385.516 226.895 377.595 254.604C377.595 254.604 414.544 321.499 408.689 325.932C402.834 330.366 386.99 340.177 382.857 337.222C378.724 334.266 348.664 234.134 348.664 234.134L381.728 220.464Z" fill="#2F2E41"/>
<path d="M423.575 349.219L429.602 355.684C432.702 359.009 434.768 363.812 428.913 367.876C423.058 371.94 402.738 387.088 395.849 382.285C388.961 377.482 404.115 373.048 404.115 373.048C404.115 373.048 406.621 363.082 407.951 365.294C409.281 367.507 409.281 371.94 409.281 371.94L423.575 349.219Z" fill="#2F2E41"/>
<path d="M350.731 340.536C350.731 340.536 339.709 362.334 339.709 364.921C339.709 367.507 340.398 374.896 340.398 374.896L319.389 380.438L312.156 376.743L314.567 370.093C314.567 370.093 327.655 365.29 330.41 356.054C333.166 346.817 336.265 337.211 336.265 337.211L350.731 340.536Z" fill="#FFB8B8"/>
<path d="M363.474 123.667C371.463 123.667 377.94 116.72 377.94 108.15C377.94 99.5799 371.463 92.6326 363.474 92.6326C355.485 92.6326 349.009 99.5799 349.009 108.15C349.009 116.72 355.485 123.667 363.474 123.667Z" fill="#FFB8B8"/>
<path d="M359.686 121.45L366.592 142.736L381.728 135.489C381.728 135.489 371.396 118.494 371.396 116.278L359.686 121.45Z" fill="#FFB8B8"/>
<path d="M357.619 197.188H375.873C375.873 197.188 388.961 218.617 381.384 241.153C380.223 244.604 379.072 249.439 377.922 255.154C375.278 268.299 372.646 286.104 369.948 302.465C366.158 325.447 362.24 345.58 357.981 345.945C349.371 346.684 332.627 346.561 332.627 342.867C332.627 339.172 343.842 232.286 343.842 232.286L346.253 227.853L346.709 208.541C346.781 205.494 347.964 202.598 350.003 200.476C352.043 198.353 354.777 197.173 357.619 197.188Z" fill="#2F2E41"/>
<path d="M339.537 364.736C339.537 364.736 343.498 371.94 342.465 377.112C341.432 382.285 339.709 381.546 332.132 382.285C324.555 383.024 298.724 383.024 298.724 377.851C298.724 372.679 318.874 365.962 318.959 368.027C319.044 370.093 319.733 374.157 317.667 374.896C315.6 375.635 317.495 375.08 317.495 375.08L339.537 364.736Z" fill="#2F2E41"/>
<path d="M359.688 243.302C359.688 243.302 358.19 269.547 348.197 261.734C338.205 253.921 352.092 239.807 352.092 239.807L359.688 243.302Z" fill="white"/>
<path d="M379.633 208.737C380.113 208.97 380.643 209.057 381.166 208.991C381.689 208.925 382.186 208.707 382.602 208.36C383.207 207.851 383.609 207.116 383.729 206.302C385.174 197.367 386.933 172.599 387.946 160.074C389.217 144.359 382.867 132.186 382.814 132.112L379.071 126.593C378.683 126.016 378.124 125.597 377.485 125.405C376.846 125.213 376.165 125.258 375.554 125.534C375.554 125.534 363.871 138.536 363.828 139.038C363.644 141.194 362.254 145.971 355.006 153.746C347.076 162.252 347.032 169.676 347.208 171.749C347.219 171.886 347.225 172.022 347.226 172.158C347.211 173.088 347.328 174.015 347.575 174.906C350.896 186.139 348.295 199.588 344.118 213.625C343.96 214.26 343.989 214.931 344.202 215.547C344.416 216.162 344.802 216.692 345.308 217.061C346.528 217.951 345.065 216.63 345.5 217.202C348.379 220.986 352.521 215.713 357.26 209.958C358.911 207.953 360.782 205.681 362.987 203.316C366.019 200.064 371.812 207.485 374.505 207.485C376.278 207.508 378.026 207.935 379.633 208.737Z" fill="#575A89"/>
<path d="M381.239 137.843C381.239 137.843 388.805 144.688 384.506 153.564C380.208 162.441 380.78 168.988 380.78 168.988C380.78 168.988 379.635 229.967 366.204 227.004L360.095 245.097L349.061 240.825L355.442 224.867C355.442 224.867 350.331 224.526 351.825 220.791C352.873 218.167 358.524 189.699 361.794 172.985C363.18 165.902 364.139 160.93 364.139 160.93C364.139 160.93 368.486 135.996 381.239 137.843Z" fill="#575A89"/>
<path opacity="0.2" d="M382.826 168.831L378.572 198.772L380.867 166.757L382.826 168.831Z" fill="black"/>
<path d="M347.692 101.275C347.692 101.275 345.26 80.9723 365.103 87.6299C365.103 87.6299 379.275 84.8405 383.922 103.856L388.628 123.789L386.335 122.45L385.266 124.957L381.549 125.967L379.959 122.581L379.189 126.693L348.75 129.948C348.75 129.948 362.383 121.299 362.599 105.798L360.002 108.742L347.692 101.275Z" fill="#2F2E41"/>
<path opacity="0.2" d="M370.329 303.632L377.116 255.117L371.596 307.491L370.329 303.632Z" fill="black"/>
<path d="M381.422 96.0391C385.649 96.0391 389.076 92.3632 389.076 87.8286C389.076 83.2941 385.649 79.6182 381.422 79.6182C377.194 79.6182 373.767 83.2941 373.767 87.8286C373.767 92.3632 377.194 96.0391 381.422 96.0391Z" fill="#2F2E41"/>
<path d="M373.535 85.8186C373.66 83.7355 374.522 81.7821 375.943 80.3564C377.365 78.9306 379.239 78.1397 381.185 78.1447C381.027 78.1232 380.87 78.0971 380.709 78.086C379.706 78.0162 378.7 78.1592 377.748 78.5068C376.796 78.8543 375.917 79.3997 375.162 80.1116C374.407 80.8236 373.789 81.6882 373.346 82.6561C372.902 83.6239 372.64 84.6761 372.576 85.7525C372.511 86.8288 372.645 87.9083 372.97 88.9291C373.294 89.95 373.803 90.8922 374.467 91.7021C375.131 92.5119 375.938 93.1735 376.84 93.6489C377.743 94.1244 378.724 94.4044 379.727 94.4731C379.888 94.4842 380.047 94.4798 380.206 94.4802C378.276 94.2178 376.511 93.1759 375.271 91.5667C374.032 89.9574 373.411 87.9018 373.535 85.8186Z" fill="#2F2E41"/>
<path opacity="0.2" d="M359.579 178.162L352.844 216.878L361.573 174.115L359.579 178.162Z" fill="black"/>
<path d="M359.999 119.332L356.074 122.506C352.031 120.324 349 115.276 347.898 110.457L352.175 108.142C352.511 113.057 355.763 116.324 359.999 119.332Z" fill="white"/>
<path d="M361.629 108.841H351.849C351.762 108.841 351.679 108.804 351.618 108.739C351.557 108.673 351.523 108.584 351.523 108.492C351.523 108.399 351.557 108.31 351.618 108.244C351.679 108.179 351.762 108.142 351.849 108.142H361.629C361.715 108.142 361.798 108.179 361.859 108.244C361.92 108.31 361.955 108.399 361.955 108.492C361.955 108.584 361.92 108.673 361.859 108.739C361.798 108.804 361.715 108.841 361.629 108.841Z" fill="white"/>
<path d="M359.673 119.332C359.619 119.332 359.567 119.318 359.52 119.291C359.473 119.264 359.432 119.226 359.403 119.178C359.373 119.131 359.354 119.077 359.349 119.02C359.343 118.963 359.35 118.905 359.37 118.852L361.978 111.859C361.994 111.816 362.017 111.777 362.047 111.744C362.077 111.711 362.113 111.685 362.152 111.666C362.191 111.648 362.234 111.639 362.277 111.638C362.32 111.637 362.362 111.646 362.402 111.663C362.442 111.68 362.478 111.705 362.509 111.737C362.539 111.77 362.564 111.808 362.581 111.85C362.597 111.893 362.606 111.938 362.607 111.984C362.607 112.03 362.599 112.076 362.583 112.118L359.975 119.112C359.951 119.177 359.909 119.233 359.855 119.272C359.801 119.311 359.738 119.332 359.673 119.332Z" fill="white"/>
<path d="M362.286 112.973C363.607 112.973 364.678 111.365 364.678 109.381C364.678 107.397 363.607 105.789 362.286 105.789C360.965 105.789 359.895 107.397 359.895 109.381C359.895 111.365 360.965 112.973 362.286 112.973Z" fill="#FFB8B8"/>
<path d="M193.747 120.202L219.221 126.455L229.984 104.679L208.202 95.5569L193.747 120.202Z" fill="#2F2E41"/>
<path d="M207.282 237.423C207.282 237.423 199.093 257.552 199.093 263.408C199.093 263.408 202.334 279.329 201.311 283.721L197.728 291.956L190.222 288.662L188.175 266.702L188.516 231.567L207.282 237.423Z" fill="#FFB9B9"/>
<path d="M211.888 117.01C211.888 117.01 212.57 129.088 211.205 132.748C209.841 136.408 216.323 143.362 216.323 143.362L226.559 129.088C226.559 129.088 219.735 121.768 221.441 113.716L211.888 117.01Z" fill="#FFB9B9"/>
<path d="M190.563 200.64C190.563 200.64 180.669 220.404 190.222 218.94C199.775 217.476 196.534 200.091 196.534 200.091" fill="#E6E6E6"/>
<path d="M196.534 200.091L199.775 165.504L199.605 144.46L192.099 145.923V165.321L190.563 200.64" fill="#FFB9B9"/>
<path d="M188.346 286.1L203.017 279.878L204.723 310.988C204.723 310.988 207.794 320.503 206.77 324.163C206.77 324.163 207.452 330.385 205.746 330.751C204.04 331.117 199.264 331.849 198.923 331.483C198.581 331.117 198.581 330.019 198.581 330.019C198.581 330.019 195.169 332.581 194.828 335.509C194.828 335.509 180.498 340.267 180.157 335.875C179.816 331.483 187.322 327.823 187.322 327.823L193.122 318.308L188.346 286.1Z" fill="#2F2E41"/>
<path d="M237.818 237.423C237.818 237.423 229.63 257.552 229.63 263.408C229.63 263.408 232.871 279.329 231.848 283.721L228.265 291.956L220.759 288.662L218.712 266.702L219.053 231.567L237.818 237.423Z" fill="#FFB9B9"/>
<path d="M219.394 286.1L234.065 279.878L235.771 310.988C235.771 310.988 238.842 320.503 237.818 324.163C237.818 324.163 238.501 330.385 236.795 330.751C235.089 331.117 230.312 331.849 229.971 331.483C229.63 331.117 229.63 330.019 229.63 330.019C229.63 330.019 226.218 332.581 225.877 335.509C225.877 335.509 211.547 340.267 211.205 335.875C210.864 331.483 218.37 327.823 218.37 327.823L224.171 318.308L219.394 286.1Z" fill="#2F2E41"/>
<path d="M226.22 108.594C226.219 111.476 225.227 114.257 223.434 116.404C221.642 118.551 219.174 119.913 216.503 120.23C213.833 120.547 211.147 119.797 208.96 118.123C206.772 116.449 205.237 113.969 204.648 111.156C204.469 110.316 204.379 109.456 204.381 108.594C204.383 105.489 205.534 102.511 207.582 100.316C209.629 98.1214 212.406 96.8884 215.301 96.8884C218.195 96.8884 220.972 98.1214 223.019 100.316C225.067 102.511 226.218 105.489 226.22 108.594Z" fill="#FFB9B9"/>
<path d="M216.665 132.016L225.137 127.296L228.947 130.552C228.947 130.552 238.16 130.186 241.572 134.578C244.983 138.97 246.86 150.133 246.86 150.133C246.86 150.133 235.601 147.571 236.965 157.819L234.918 151.963L233.042 156.904L210.182 165.321L199.946 146.656C199.946 146.656 193.122 144.46 190.734 149.584C190.734 149.584 191.246 131.101 197.899 130.552C202.373 130.183 205.746 130.186 205.746 130.186L209.5 129.454L211.903 128.539L216.665 132.016Z" fill="#575A89"/>
<path d="M231.165 172.092C231.165 172.092 249.078 229.737 243.96 237.789C243.96 237.789 224.853 248.036 186.64 234.129L202.164 169.53C211.7 167.439 221.367 168.293 231.165 172.092Z" fill="#2F2E41"/>
<path d="M231.165 172.092L236.206 153.509C230.159 146.454 235.379 130.81 235.379 130.81L228.082 129.133C228.082 129.133 220.759 150.316 213.253 147.754C205.746 145.192 209.841 128.722 209.841 128.722L203.017 129.454L199.946 142.264L202.164 169.531C211.413 168.679 221.113 169.67 231.165 172.092Z" fill="#575A89"/>
<path d="M240.036 200.091L242.424 165.321L243.107 144.46L235.601 145.923V165.321L234.065 200.64" fill="#FFB9B9"/>
<path d="M234.065 200.64C234.065 200.64 224.171 220.404 233.724 218.94C243.277 217.476 240.036 200.091 240.036 200.091" fill="white"/>
<path d="M246.86 150.133C246.86 150.133 245.647 131.337 235.506 131.402V153.138C235.506 153.138 243.107 148.303 246.86 150.133Z" fill="#575A89"/>
<path d="M218.792 111.616C218.734 111.616 218.678 111.597 218.631 111.561C218.584 111.526 218.548 111.475 218.529 111.417C218.51 111.358 218.508 111.295 218.524 111.235C218.54 111.176 218.573 111.123 218.618 111.084L224.186 106.306C224.215 106.281 224.248 106.263 224.283 106.251C224.318 106.24 224.355 106.237 224.392 106.241C224.428 106.245 224.464 106.257 224.496 106.276C224.528 106.295 224.556 106.321 224.579 106.351C224.602 106.382 224.619 106.417 224.63 106.455C224.64 106.493 224.643 106.533 224.639 106.572C224.634 106.611 224.623 106.649 224.605 106.683C224.587 106.718 224.563 106.748 224.534 106.772L218.966 111.551C218.917 111.593 218.855 111.616 218.792 111.616Z" fill="white"/>
<path d="M219.213 118.784C219.091 118.945 218.968 119.107 218.84 119.256C217.363 119.975 215.755 120.331 214.133 120.299C212.511 120.268 210.916 119.849 209.464 119.073C208.012 118.298 206.739 117.185 205.738 115.815C204.737 114.446 204.033 112.854 203.678 111.156L208.954 110.115L219.213 111.156C216.864 114.227 217.148 115.29 219.213 118.784Z" fill="white"/>
<path d="M209.135 92.1995C209.135 92.1995 203.492 93.3381 202.187 100.888C201.983 102.161 201.946 103.458 202.077 104.743C202.207 106.196 202.018 109.265 199.076 112.879C197.157 115.224 195.368 117.687 193.72 120.258L199.617 121.942L202.251 111.462C203.529 106.381 205.496 101.53 208.091 97.0641L208.145 96.9708C208.145 96.9708 210.104 102.584 215.353 103.354L213.734 101.068C213.734 101.068 219.871 104.873 223.347 106.035C223.744 106.168 224.1 106.414 224.375 106.748C224.651 107.081 224.837 107.489 224.913 107.927C224.989 108.366 224.952 108.818 224.806 109.235C224.66 109.653 224.41 110.02 224.084 110.296C224.06 110.317 224.035 110.338 224.009 110.359C221.452 112.442 216.235 117.413 218.296 122.222C220.357 127.031 217.954 127.908 217.954 127.908L222.386 126.099L224.414 125.167L224.209 126.776L234.111 126.999C234.111 126.999 236.787 126.981 232.034 119.32C232.034 119.32 230.887 116.447 231.829 114.252C232.584 112.59 232.96 110.759 232.926 108.91C232.627 101.185 229.593 85.4703 209.135 92.1995Z" fill="#2F2E41"/>
<path d="M70.2281 312.23C70.2281 312.23 70.2281 361.931 59.5944 374.967C59.5944 374.967 57.3158 381.485 56.5563 383.929C56.1316 385.321 55.6242 386.682 55.0372 388.003V391.262C55.0372 391.262 34.5294 388.818 32.2507 383.115L36.0485 378.226C36.0485 378.226 36.808 377.411 36.0485 374.967C35.2889 372.523 37.5676 372.523 37.5676 372.523L42.8844 359.487L42.1249 305.712L45.9226 231.569L78.5831 229.939L70.2281 312.23Z" fill="#2F2E41"/>
<path d="M53.5181 386.374C53.5181 386.374 58.8349 403.484 53.5181 404.299C48.2012 405.113 1.86883 405.928 2.62838 399.41C3.38792 392.892 18.5789 393.707 18.5789 393.707L34.5294 383.115L53.5181 386.374Z" fill="#2F2E41"/>
<path d="M100.61 231.569C100.61 231.569 102.129 242.161 96.0527 253.567C89.9764 264.974 93.7741 303.268 93.7741 303.268L147.702 353.783C147.702 353.783 137.068 373.338 133.271 372.523C129.473 371.708 69.4686 319.563 69.4686 319.563L45.9226 234.828L100.61 231.569Z" fill="#2F2E41"/>
<path d="M146.961 351.624C146.961 351.624 163.28 355.967 161.075 361.22C158.87 366.474 134.707 408.889 129.982 404.711C125.256 400.533 134.03 387.206 134.03 387.206L134.229 367.084L146.961 351.624Z" fill="#2F2E41"/>
<path d="M88.4571 80.0239C88.4632 84.3163 87.0877 88.4793 84.5629 91.8094C82.5666 94.4634 79.9314 96.481 76.9428 97.6438C73.9542 98.8066 70.726 99.0702 67.6077 98.4061C66.0463 98.0824 64.5352 97.5246 63.1187 96.7491C60.8691 95.5329 58.8915 93.8087 57.3218 91.6952C55.752 89.5816 54.6272 87.1286 54.0247 84.5047C53.6853 83.039 53.5148 81.5342 53.5171 80.0239C53.5171 75.0537 55.3577 70.2871 58.634 66.7727C61.9102 63.2583 66.3538 61.2839 70.9871 61.2839C75.6205 61.2839 80.064 63.2583 83.3403 66.7727C86.6166 70.2871 88.4571 75.0537 88.4571 80.0239Z" fill="#A0616A"/>
<path d="M84.733 86.6345L83.9604 110.749L69.261 116.979C69.261 116.979 67.8195 92.2874 65.7846 90.9185C63.7497 89.5497 84.733 86.6345 84.733 86.6345Z" fill="#A0616A"/>
<path d="M65.6708 119.946C65.6708 119.946 86.1786 97.9473 91.4954 98.7621C96.8123 99.5768 96.8123 102.021 96.8123 103.651C96.8123 105.28 95.2932 106.095 96.8123 106.91C98.3314 107.724 99.8505 106.91 99.8505 109.354C99.8505 111.798 113.522 136.241 108.965 163.128C104.408 190.016 99.0909 203.052 101.37 217.718C103.648 232.383 102.129 235.642 102.129 235.642C102.129 235.642 45.163 240.531 44.4035 234.828C43.6439 229.124 46.6821 232.383 42.8844 228.31C39.0866 224.236 40.6057 224.236 40.6057 221.791C40.6057 219.347 57.3158 119.946 65.6708 119.946Z" fill="#575A89"/>
<path d="M76.3046 230.754C76.3046 230.754 67.19 254.382 60.3541 248.679C53.5181 242.975 63.3923 223.421 63.3923 223.421L76.3046 230.754Z" fill="white"/>
<path d="M98.3314 121.575C98.3314 121.575 116.177 123.767 109.533 158.928C102.889 194.09 77.0641 234.828 77.0641 234.828L59.5945 225.865L82.3809 177.794L77.0641 147.648C77.0641 147.648 74.0259 119.131 98.3314 121.575Z" fill="#575A89"/>
<path opacity="0.2" d="M82.7609 178.202L57.6954 223.014L59.9742 225.458L82.7609 178.202Z" fill="black"/>
<path opacity="0.2" d="M96.0279 199.084L75.9247 234.42H82.7608L96.0279 199.084Z" fill="black"/>
<path opacity="0.2" d="M50.617 263.3L49.6072 263.713L69.5947 319.928L70.6045 319.515L50.617 263.3Z" fill="black"/>
<path d="M65.7785 124.419C66.3753 124.419 66.859 123.901 66.859 123.26C66.859 122.62 66.3753 122.101 65.7785 122.101C65.1818 122.101 64.698 122.62 64.698 123.26C64.698 123.901 65.1818 124.419 65.7785 124.419Z" fill="#D0CDE1"/>
<path d="M56.5942 155.714C56.7096 155.714 56.822 155.674 56.9149 155.601C57.0077 155.527 57.0762 155.424 57.1102 155.305L66.2945 123.432C66.3156 123.359 66.3231 123.282 66.3167 123.207C66.3102 123.131 66.2898 123.057 66.2568 122.99C66.2237 122.922 66.1786 122.862 66.1239 122.814C66.0693 122.765 66.0063 122.728 65.9384 122.706C65.8706 122.683 65.7993 122.675 65.7286 122.683C65.6579 122.69 65.5891 122.712 65.5264 122.747C65.4636 122.783 65.408 122.831 65.3627 122.89C65.3174 122.949 65.2834 123.016 65.2625 123.089L56.0782 154.964C56.0534 155.05 56.0478 155.142 56.062 155.231C56.0762 155.321 56.1097 155.405 56.1599 155.478C56.2101 155.551 56.2755 155.611 56.3509 155.652C56.4263 155.693 56.5097 155.714 56.5942 155.714V155.714Z" fill="#D0CDE1"/>
<path d="M67.4845 94.3765L63.1188 98.8317C58.6226 96.4046 54.2797 89.8646 53.0541 84.5047L58.7821 81.9298C59.1561 87.3966 62.7736 91.031 67.4845 94.3765Z" fill="white"/>
<path d="M68.573 84.2636C68.5558 84.2636 68.5385 84.2624 68.5213 84.2598L58.3686 82.7039C58.3214 82.6967 58.276 82.6797 58.235 82.6537C58.194 82.6277 58.1582 82.5933 58.1296 82.5524C58.101 82.5116 58.0802 82.4651 58.0683 82.4156C58.0564 82.3662 58.0538 82.3147 58.0605 82.2641C58.0672 82.2135 58.0831 82.1648 58.1073 82.1208C58.1316 82.0769 58.1636 82.0384 58.2017 82.0077C58.2398 81.9771 58.2831 81.9547 58.3292 81.942C58.3754 81.9293 58.4234 81.9264 58.4705 81.9336L68.6233 83.4895C68.7141 83.5033 68.7967 83.5534 68.8544 83.6299C68.912 83.7064 68.9406 83.8035 68.9342 83.9016C68.9278 83.9998 68.887 84.0917 68.82 84.1588C68.753 84.226 68.6648 84.2634 68.573 84.2636Z" fill="white"/>
<path d="M67.1219 94.3765C67.0586 94.3765 66.9964 94.3588 66.9414 94.325C66.8865 94.2912 66.8407 94.2426 66.8088 94.184C66.7768 94.1253 66.7598 94.0587 66.7593 93.9908C66.7588 93.9229 66.7749 93.856 66.8061 93.7968L70.17 87.3729C70.1933 87.3283 70.2245 87.289 70.262 87.2573C70.2994 87.2256 70.3423 87.2022 70.3883 87.1883C70.4342 87.1744 70.4822 87.1704 70.5295 87.1765C70.5769 87.1826 70.6226 87.1986 70.6642 87.2237C70.7058 87.2488 70.7423 87.2825 70.7717 87.3227C70.8011 87.363 70.8228 87.4091 70.8356 87.4584C70.8484 87.5077 70.852 87.5592 70.8462 87.61C70.8404 87.6607 70.8253 87.7098 70.8018 87.7543L67.4378 94.1782C67.4063 94.2384 67.3605 94.2885 67.305 94.3233C67.2494 94.3582 67.1863 94.3765 67.1219 94.3765Z" fill="white"/>
<path d="M78.8946 91.283C77.4804 90.4809 75.8375 90.3155 74.3067 89.8169C68.8301 88.0332 65.1612 81.392 66.3325 75.3823C66.549 74.6115 66.6461 73.8078 66.6202 73.0033C66.4154 71.2234 64.7176 70.0749 63.0895 69.6671C61.4615 69.2593 59.7292 69.3185 58.1731 68.6627C55.7705 67.6502 54.1746 65.0016 53.8286 62.2575C53.4826 59.5134 54.2417 56.7148 55.4763 54.283L56.0643 56.0982C56.9612 55.2838 57.6269 54.2157 57.9858 53.0155C58.6542 53.1359 59.2825 53.4384 59.8106 53.894C60.3387 54.3496 60.7489 54.9429 61.002 55.6173C61.946 56.2144 62.082 53.7623 63.1246 53.4006C63.5612 53.2491 64.0102 53.5369 64.4261 53.7449C66.5271 54.7961 68.9681 53.8974 71.2219 53.3147C75.1245 52.3105 79.1927 52.3054 83.0975 53.2997C85.6918 53.9635 88.2596 55.1193 90.116 57.1734C91.6405 58.8604 92.5904 61.0418 93.3992 63.2252C95.3902 68.6003 96.7056 74.4163 96.0483 80.157C95.5009 84.8547 93.6687 89.2733 90.783 92.8554C89.2796 94.7133 84.3749 101.195 81.6856 100.09C78.3064 98.7015 82.8762 93.5412 78.8946 91.283Z" fill="#2F2E41"/>
</svg>
